<svg width="48" height="48" viewBox="0 0 48 48" fill="none" xmlns="http://www.w3.org/2000/svg">
  <path d="M14.3,6.1l6.5,6.5h6.3l6.5-6.5c.8-.8,2-.8,2.8,0,.8,.8,.8,2,0,2.8h0l-3.7,3.7h4.2c3.9,0,7,3.1,7,7h0v16c0,3.9-3.1,7-7,7H11c-3.9,0-7-3.1-7-7h0V19.5c0-3.9,3.1-7,7-7h4.2l-3.7-3.7c-.8-.8-.8-2,0-2.8,.8-.8,2-.8,2.8,0h0Zm22.7,10.5H11c-1.5,0-2.8,1.2-3,2.7v.3s0,16,0,16c0,1.5,1.2,2.8,2.7,3h.3s26,0,26,0c1.5,0,2.8-1.2,3-2.7v-.3s0-16,0-16c0-1.7-1.3-3-3-3Zm-21,6c1.1,0,2,.9,2,2v4c0,1.1-.9,2-2,2s-2-.9-2-2v-4c0-1.1,.9-2,2-2Zm16,0c1.1,0,2,.9,2,2h0v4c0,1.1-.9,2-2,2-1.1,0-2-.9-2-2v-4c0-1.1,.9-2,2-2h0Z" fill="black"/>
</svg>
