<svg width="48" height="48" viewBox="0 0 48 48" fill="none" xmlns="http://www.w3.org/2000/svg">
  <path d="M24,4C13,4,4,13,4,24s9,20,20,20,20-9,20-20S35,4,24,4Zm9.3,18.8c0,.2-.1,.4-.3,.7h0c-.8,1.8-3,5.3-3,5.3h0s-.6,1.1-.6,1.1h3.1l-5.9,7.8,1.3-5.3h-2.4l.8-3.5c-.7,.2-1.5,.4-2.4,.7,0,0-1.3,.8-3.7-1.5,0,0-1.6-1.4-.7-1.8,.4-.2,2-.3,3.2-.5,1.7-.2,2.7-.3,2.7-.3,0,0-5.1,0-6.3-.1-1.2-.2-2.7-2.2-3.1-4,0,0-.5-1,1.1-.5,1.6,.5,8.2,1.8,8.2,1.8,0,0-8.6-2.6-9.2-3.3-.6-.6-1.7-3.5-1.5-5.3,0,0,0-.4,.5-.3,0,0,6.4,2.9,10.7,4.5,4.3,1.6,8.1,2.4,7.6,4.5h0Z" fill="black"/>
</svg>
