<svg width="48" height="48" viewBox="0 0 48 48" fill="none" xmlns="http://www.w3.org/2000/svg">
  <path d="M18.2,29.2c1.2,0,2.2-1,2.2-2.2s-1-2.2-2.2-2.2h0c-1.2,0-2.2,1-2.2,2.2s1,2.2,2.2,2.2Zm11.6,0c1.2,0,2.2-1,2.2-2.2s-1-2.2-2.2-2.2-2.2,1-2.2,2.2,1,2.2,2.2,2.2Z" fill="black"/>
  <path d="M33.3,16.8c-3-.9-6.1-1.4-9.3-1.4h0c-3.2,0-6.3,.4-9.3,1.4-.8,.3-1.6-.2-1.8-.9-.3-.8,.2-1.6,.9-1.8,0,0,0,0,0,0,3.3-1,6.7-1.5,10.2-1.5,3.5,0,6.9,.5,10.2,1.5,.8,.2,1.2,1,1,1.8s-1,1.2-1.8,1c0,0,0,0,0,0h0Zm-20.4,15.6c.2-.8,1.1-1.2,1.8-1,3,.9,6.1,1.4,9.3,1.4h0c3.2,0,6.3-.4,9.3-1.4,.8-.2,1.6,.2,1.8,1,.2,.7-.2,1.5-.9,1.8-3.3,1-6.7,1.5-10.2,1.5-3.5,0-6.9-.5-10.2-1.5-.8-.2-1.2-1.1-1-1.8h0Z" fill="black"/>
  <path d="M32.2,7.5c1.9,.4,3.8,1,5.6,1.7h0c.8,.3,1.4,1,1.7,1.9l6.2,20.6c.3,1.1,0,2.3-.9,3-3,2.6-7.1,4.6-11.7,5.7h0c-1.3,.3-2.7-.3-3.3-1.5h0s-2.2-4.4-2.2-4.4c-.4-.7,0-1.6,.7-1.9,.7-.3,1.6,0,1.9,.6l2.2,4.4c4.3-1,7.9-2.9,10.5-5.1h0s0,0,0,0h0s-6.2-20.6-6.2-20.6h0c-1.7-.7-3.4-1.2-5.1-1.6h0s0,0,0,0c0,0,0,0,0,0l-1.4,4.3c-.3,.8-1.1,1.2-1.8,.9-.8-.3-1.2-1.1-.9-1.8l1.5-4.4c.5-1.4,1.9-2.2,3.4-1.9h0Zm-15.8,2.8h0c-1.8,.4-3.5,.9-5.1,1.6h0s-6.2,20.6-6.2,20.6h0s0,0,0,0h0c2.6,2.3,6.2,4.1,10.5,5.1l2.2-4.4c.4-.7,1.2-1,1.9-.7,.7,.4,1,1.2,.7,1.9,0,0,0,0,0,0l-2.2,4.4c-.6,1.2-2,1.8-3.3,1.5h0c-4.6-1.1-8.7-3.1-11.7-5.7-.9-.7-1.2-1.9-.9-3h0S8.5,11.1,8.5,11.1c.3-.8,.9-1.5,1.7-1.9h0c1.8-.7,3.7-1.3,5.6-1.7,1.5-.3,2.9,.5,3.4,1.9h0s1.5,4.4,1.5,4.4c.2,.8-.2,1.6-1,1.8-.7,.2-1.5-.2-1.8-.9l-1.4-4.3h0Z" fill="black"/>
  <path d="M18.2,29.2c1.2,0,2.2-1,2.2-2.2s-1-2.2-2.2-2.2h0c-1.2,0-2.2,1-2.2,2.2s1,2.2,2.2,2.2Zm11.6,0c1.2,0,2.2-1,2.2-2.2s-1-2.2-2.2-2.2-2.2,1-2.2,2.2,1,2.2,2.2,2.2Z" fill="black"/>
  <path d="M33.3,16.8c-3-.9-6.1-1.4-9.3-1.4h0c-3.2,0-6.3,.4-9.3,1.4-.8,.3-1.6-.2-1.8-.9-.3-.8,.2-1.6,.9-1.8,0,0,0,0,0,0,3.3-1,6.7-1.5,10.2-1.5,3.5,0,6.9,.5,10.2,1.5,.8,.2,1.2,1,1,1.8s-1,1.2-1.8,1c0,0,0,0,0,0h0Zm-20.4,15.6c.2-.8,1.1-1.2,1.8-1,3,.9,6.1,1.4,9.3,1.4h0c3.2,0,6.3-.4,9.3-1.4,.8-.2,1.6,.2,1.8,1,.2,.7-.2,1.5-.9,1.8-3.3,1-6.7,1.5-10.2,1.5-3.5,0-6.9-.5-10.2-1.5-.8-.2-1.2-1.1-1-1.8h0Z" fill="black"/>
  <path d="M32.2,7.5c1.9,.4,3.8,1,5.6,1.7h0c.8,.3,1.4,1,1.7,1.9l6.2,20.6c.3,1.1,0,2.3-.9,3-3,2.6-7.1,4.6-11.7,5.7h0c-1.3,.3-2.7-.3-3.3-1.5h0s-2.2-4.4-2.2-4.4c-.4-.7,0-1.6,.7-1.9,.7-.3,1.6,0,1.9,.6l2.2,4.4c4.3-1,7.9-2.9,10.5-5.1h0s0,0,0,0h0s-6.2-20.6-6.2-20.6h0c-1.7-.7-3.4-1.2-5.1-1.6h0s0,0,0,0c0,0,0,0,0,0l-1.4,4.3c-.3,.8-1.1,1.2-1.8,.9-.8-.3-1.2-1.1-.9-1.8l1.5-4.4c.5-1.4,1.9-2.2,3.4-1.9h0Zm-15.8,2.8h0c-1.8,.4-3.5,.9-5.1,1.6h0s-6.2,20.6-6.2,20.6h0s0,0,0,0h0c2.6,2.3,6.2,4.1,10.5,5.1l2.2-4.4c.4-.7,1.2-1,1.9-.7,.7,.4,1,1.2,.7,1.9,0,0,0,0,0,0l-2.2,4.4c-.6,1.2-2,1.8-3.3,1.5h0c-4.6-1.1-8.7-3.1-11.7-5.7-.9-.7-1.2-1.9-.9-3h0S8.5,11.1,8.5,11.1c.3-.8,.9-1.5,1.7-1.9h0c1.8-.7,3.7-1.3,5.6-1.7,1.5-.3,2.9,.5,3.4,1.9h0s1.5,4.4,1.5,4.4c.2,.8-.2,1.6-1,1.8-.7,.2-1.5-.2-1.8-.9l-1.4-4.3h0Z" fill="black"/>
</svg>
