<svg width="48" height="48" viewBox="0 0 48 48" fill="none" xmlns="http://www.w3.org/2000/svg">
  <path d="M21.9,7.6c-1.1,.9-2.1,1.6-2.2,1.8l-.3,.2,.5,.4c.3,.2,.6,.4,.6,.5,0,0,.8,.7,1.7,1.4l1.6,1.3,.2-.2c.1-.1,1.1-.9,2.1-1.7,1-.8,1.9-1.5,2-1.6,0,0,.1-.1,.1-.1s-.5-.4-1-.8c-.6-.4-1.1-.8-1.1-.9-.7-.6-2.3-1.8-2.4-1.8,0,0-.9,.7-2,1.5Zm10.9,8.5c-9,7.1-8.9,7-9.1,6.9-.1,0-.5-.4-3-2.3-.4-.3-.9-.7-1-.8-.1-.1-.4-.3-.6-.5-.2-.2-.5-.4-.6-.5-.6-.5-3.3-2.6-4.8-3.8-.3-.2-.5-.4-.6-.4s-.5,.4-1.1,.8c-.5,.4-1.1,.9-1.1,.9,0,0-.2,.2-.3,.3-.1,.1-.2,.2-.3,.2-.1,0,0,.1,.3,.4,.2,.2,.4,.3,.5,.4,0,0,.5,.4,.9,.7,.4,.3,1.1,.9,1.4,1.1,.9,.7,1.5,1.2,6,4.7,2.2,1.8,4.2,3.3,4.3,3.3,.2,.1,.2,.1,.3,0,.3-.2,.5-.4,.8-.6,.3-.3,.7-.5,.8-.7,1.4-1.1,3.8-3,3.8-3,0,0,.6-.5,1.2-.9s1.8-1.4,2.6-2.1c.9-.7,2.2-1.7,2.9-2.3,.7-.6,1.3-1.1,1.3-1.1,0,0-2.7-2.2-2.8-2.3,0,0-.9,.6-1.9,1.4Z" fill="black"/>
  <path d="M2.9,22.9c-.7,.6-1.3,1.1-1.4,1.2-.1,.1-.3,0,3.8,3.1,1.6,1.2,1.5,1.2,2.7,2.1,.5,.4,1.7,1.3,2.7,2.1,1.8,1.4,2.1,1.7,2.5,1.9,0,0,1.1,.9,2.2,1.7,1.1,.9,3.5,2.7,5.3,4.2,1.8,1.4,3.3,2.6,3.4,2.6,0,0,.3-.2,.7-.5,1-.8,4.2-3.3,4.8-3.7,.3-.2,.6-.5,.7-.6,.1-.1,.3-.2,.3-.3,0,0,.6-.4,1.1-.9,1-.8,2.8-2.2,3-2.4,0,0,.2-.2,.4-.3,.2-.1,.4-.3,.4-.4,0,0,.7-.5,1.4-1.1,1.4-1.1,2-1.6,4.1-3.3,.8-.6,1.5-1.2,1.6-1.2,.1,0,1.5-1.2,2.1-1.7,.2-.2,.4-.3,.4-.4,0,0,.3-.2,.6-.5,.3-.2,.6-.5,.7-.6h.2c0-.1-.5-.5-.5-.5-.3-.2-.5-.4-.5-.4,0,0-1-.9-1.4-1.1-.2-.1-.3-.3-.4-.3,0-.1-.3,0-1.4,.8-.6,.5-1.2,.9-1.3,1,0,0-.5,.4-.9,.7-.4,.3-.8,.6-.8,.7,0,0-.3,.3-.7,.5-.3,.3-.7,.5-.8,.6-.2,.2-.3,.2-1,.8-.3,.2-.5,.4-.6,.5,0,0-1,.8-2,1.6-1,.8-1.9,1.5-2,1.6,0,0-.7,.5-1.3,1.1s-1.9,1.5-2.8,2.2c-.9,.7-2,1.6-2.5,1.9s-1.1,.9-1.4,1.1l-.5,.4h-.2c-.1-.2-.2-.3-.2-.3,0,0-.2-.2-.5-.4-.6-.4-.7-.5-.8-.6,0,0-.2-.2-.3-.3-.2-.1-.3-.2-.3-.2,0,0-.3-.3-.7-.5-.4-.3-.7-.5-.8-.6,0,0-.8-.6-1.7-1.3-.8-.7-1.6-1.3-1.8-1.4-.3-.2-1.6-1.2-5.9-4.6-1.6-1.3-3.4-2.7-4-3.1-2.3-1.9-2.6-2-2.7-2,0,0-.7,.5-1.4,1.1h0Z" fill="black"/>
</svg>
