<svg width="48" height="48" viewBox="0 0 48 48" fill="none" xmlns="http://www.w3.org/2000/svg">
  <path d="M24.9,3c-.3,0-.6,0-.8,0-7.4,.6-5.5,8.4-5.6,11-.1,1.9-.5,3.4-1.8,5.3-1.6,1.8-3.7,4.8-4.8,7.9-.5,1.5-.7,2.9-.5,4.4,0,0-.1,.1-.2,.2-.5,.5-.8,1.1-1.2,1.5-.3,.3-.9,.5-1.4,.7-.5,.2-1.2,.5-1.5,1.2-.2,.3-.2,.7-.2,1.1,0,.3,0,.7,0,.9,.1,.7,.2,1.3,0,1.7-.4,1.2-.5,2-.2,2.6,.3,.6,.9,.8,1.6,1.1,1.4,.3,3.4,.2,4.9,1,1.6,.8,3.3,1.2,4.6,.8,.9-.2,1.7-.8,2.1-1.7,1,0,2.2-.5,4-.6,1.2-.1,2.8,.5,4.5,.3,0,.2,.1,.3,.2,.6h0c.7,1.4,2,2,3.3,1.9,1.4-.1,2.8-.9,4-2.3,1.1-1.3,3-1.9,4.2-2.6,.6-.3,1.1-.8,1.1-1.5,0-.7-.3-1.4-1.3-2.4v-.2h0c-.3-.4-.4-.9-.6-1.6-.1-.7-.3-1.4-.9-1.8h0c-.1,0-.2-.1-.3-.2,0,0-.2-.1-.3-.1,.8-2.2,.5-4.5-.3-6.5-.9-2.5-2.6-4.6-3.8-6.1-1.4-1.8-2.8-3.4-2.7-5.9,0-3.8,.4-10.7-6.2-10.7Zm.9,6h0c.4,0,.7,.1,1,.3,.3,.2,.6,.6,.8,.9,.2,.5,.3,.8,.3,1.3,0,0,0,0,0-.1v.2s0,0,0,0h0c0,.4,0,.8-.3,1.2,0,.2-.2,.4-.4,.6,0,0-.1,0-.2,0-.2,0-.3-.1-.5-.2-.1,0-.3,0-.4-.1,0-.1,.3-.2,.3-.3,0-.2,.1-.5,.2-.7h0c0-.3,0-.5-.1-.7,0-.2-.2-.4-.3-.6-.1-.1-.3-.2-.5-.2h0c-.2,0-.3,0-.5,.2-.2,.2-.3,.4-.4,.6,0,.2-.1,.5-.2,.7h0c0,.2,0,.3,0,.5-.3-.1-.8-.2-1.1-.4,0-.1,0-.2,0-.3h0c0-.5,0-1,.3-1.4,.1-.4,.4-.7,.8-.9,.3-.2,.7-.3,1-.3Zm-5.2,.1h0c.2,0,.5,0,.7,.2,.3,.2,.5,.5,.6,.8,.2,.3,.2,.7,.3,1.2h0c0,.2,0,.4,0,.5h0c0,.2,0,.2-.1,.2-.3,0-.5,.2-.7,.3,0-.2,0-.3,0-.5h0c0-.3,0-.4-.1-.6,0-.2-.2-.3-.3-.5,0,0-.2-.1-.3-.1h0c-.1,0-.2,0-.3,.2-.1,.1-.2,.3-.2,.5,0,.2,0,.4,0,.6h0c0,.3,0,.4,.1,.6,0,.2,.2,.3,.3,.5,0,0,0,0,0,0-.1,0-.2,.1-.3,.2,0,0-.1,0-.2,.1-.2-.2-.3-.5-.5-.7-.2-.4-.3-.8-.3-1.2,0-.4,0-.8,.1-1.2,0-.3,.3-.7,.5-.9,.2-.2,.5-.3,.7-.3Zm2.4,3c.6,0,1.3,.1,2.1,.7,.5,.3,.9,.5,1.8,.8h0c.4,.2,.7,.5,.8,.7v-.2c.1,.3,.1,.6,0,.8-.2,.5-.9,1.1-1.9,1.5h0c-.5,.2-.9,.6-1.4,.8-.5,.2-1,.5-1.8,.5-.3,0-.5,0-.8-.1-.2-.1-.4-.2-.6-.3-.3-.2-.6-.6-1.1-.8h0s0,0,0,0c-.7-.4-1.1-.9-1.2-1.2-.1-.5,0-.8,.3-1,.4-.2,.7-.5,.8-.6,.2-.1,.3-.2,.3-.2h0c.3-.4,.8-.8,1.5-1.1,.2,0,.5-.1,.8-.1Zm4.9,3.7c.6,2.5,2.1,6.1,3,7.8,.5,.9,1.5,2.9,1.9,5.3,.3,0,.6,0,.9,.1,1.1-2.9-1-6.1-1.9-6.9-.4-.4-.4-.6-.2-.6,1,.9,2.4,2.8,2.9,4.8,.2,.9,.3,1.9,0,2.9,.1,0,.2,.1,.4,.1,1.8,.9,2.5,1.6,2.2,2.7h0c-.1,0-.2,0-.3,0h0c.3-.8-.3-1.4-1.9-2.1-1.6-.7-2.9-.6-3.1,.8,0,0,0,.1,0,.2-.1,0-.2,0-.4,.1-.8,.5-1.2,1.2-1.4,2.1-.2,.9-.3,2-.4,3.3h0c0,.6-.3,1.5-.6,2.4-2.6,1.9-6.3,2.7-9.4,.6-.2-.3-.4-.7-.7-.9-.1-.2-.3-.4-.5-.6,.3,0,.6,0,.8-.1,.3-.1,.4-.3,.6-.6,.2-.5,0-1.2-.6-2-.6-.8-1.6-1.7-3.1-2.7-1.1-.7-1.7-1.5-2-2.4-.3-.9-.3-1.9,0-2.9,.4-1.9,1.5-3.7,2.2-4.8,.2-.1,0,.2-.7,1.7-.7,1.3-2,4.4-.2,6.7,0-1.7,.5-3.4,1.1-5,1-2.2,3.1-6.1,3.2-9.2,0,0,.4,.2,.5,.4,.4,.2,.7,.6,1,.8,.4,.4,.8,.6,1.5,.6,0,0,.1,0,.2,0,.7,0,1.3-.2,1.7-.5,.5-.2,.9-.6,1.3-.7h0c.8-.2,1.5-.7,1.8-1.2Zm3.8,15.7c0,1.1,.6,2.2,1.5,2.4,1,.2,2.5-.6,3.1-1.3h.4c.6,0,1,0,1.5,.5h0c.4,.4,.5,.9,.7,1.5,.1,.7,.3,1.4,.7,1.9,.9,.9,1.1,1.6,1.1,2h0s0,0,0,0h0c0,.4-.3,.7-.9,1-1.1,.7-3.1,1.2-4.3,2.7-1.1,1.3-2.4,2-3.6,2.1-1.2,0-2.2-.3-2.8-1.6h0c-.4-.7-.2-1.8,0-3,.3-1.2,.8-2.4,.8-3.3,0-1.2,.1-2.3,.3-3.2,.2-.8,.5-1.4,1.1-1.7h0s0,0,0,0Zm-19,0h0c0,0,.2,0,.3,0,.7,0,1.2,.6,1.8,1.3l1.6,2.9h0c.4,.9,1.3,1.9,2.1,2.9,.8,1,1.4,2,1.3,2.7h0c-.1,1.3-.8,2-2,2.3-1.1,.2-2.7,0-4.2-.8-1.7-.9-3.7-.8-5-1.1-.6-.1-1.1-.4-1.3-.7-.2-.3-.2-1.1,.2-2.2h0s0,0,0,0c.2-.6,0-1.3,0-2,0-.7-.1-1.2,0-1.6,.3-.6,.7-.7,1.2-.9,.5-.2,1.1-.4,1.6-.8h0c.4-.5,.8-1.1,1.2-1.5,.3-.4,.7-.6,1.2-.6Zm12.6-15.9c-.8,.4-1.7,.9-2.6,.9s-1.7-.5-2.2-.8c-.3-.2-.5-.5-.7-.6-.3-.2-.3-.6-.1-.6,.2,0,.2,.2,.3,.4,.2,.1,.4,.3,.6,.6,.5,.3,1.2,.8,2,.8s1.8-.5,2.5-.8c.3-.2,.8-.6,1.1-.8,.3-.2,.3-.5,.5-.5,.2,0,0,.2-.3,.6-.4,.3-.8,.6-1.2,.8h0s0,0,0,0Zm-1.9-2.8h0c0,0,0-.1,0-.1,.1,0,.3,0,.5,0,.1,0,.3,.1,.3,.2,0,0-.1,.1-.2,.1s-.2,0-.2-.1c0,0-.3,0-.3-.1Zm-1,0c0,.1-.2,0-.3,.1,0,0-.2,.1-.2,.1s-.2,0-.2-.1c0-.1,.2-.2,.3-.2,.1,0,.3,0,.5,0,0,0,0,0,0,0h0s0,0,0,0h0Z" fill="black"/>
</svg>
