<svg width="48" height="48" viewBox="0 0 48 48" fill="none" xmlns="http://www.w3.org/2000/svg">
  <path d="M41.5,20.4c.5-1.4,.6-2.7,.5-4.1s-.6-2.7-1.3-4c-1.1-1.9-2.8-3.4-4.7-4.3-2-.9-4.2-1.1-6.4-.6-1-1-2.2-1.9-3.4-2.5s-2.8-.9-4.2-.9c-2.2,0-4.3,.6-6.1,1.9-1.8,1.3-3.1,3-3.7,5-1.5,.4-2.8,1-4.1,1.8-1.1,.9-2,2-2.8,3.1-1.1,1.9-1.5,4-1.3,6.1,.3,2.1,1.1,4.1,2.5,5.8-.5,1.4-.6,2.8-.5,4.1s.6,2.8,1.3,4c1.1,1.9,2.8,3.4,4.7,4.2,2,.9,4.2,1.1,6.4,.6,1,1,2.2,1.9,3.4,2.5s2.8,.9,4.2,.9c2.2,0,4.3-.6,6.1-1.9s3.1-3,3.7-5c1.4-.3,2.8-.9,3.9-1.7s2.2-1.9,2.8-3.1c1.1-1.9,1.5-4,1.3-6.1s-1-4.1-2.4-5.8Zm-14.9,20.5c-1.9,0-3.4-.6-4.7-1.7,0,0,.1-.1,.2-.1l7.7-4.4c.2-.1,.4-.2,.5-.5s.1-.4,.1-.6v-10.6l3.2,1.9v8.7c.1,4.1-3.2,7.2-7.1,7.2Zm-17-6.3c-.9-1.5-1.3-3.3-.9-5,0,0,.1,.1,.3,.1l8.1,4.6c.3,.1,.4,.1,.6,.1s.5,0,.6-.1l9.9-5.6v3.9l-8.3,4.7c-1.8,1-3.8,1.3-5.7,.8-2-.5-3.7-1.7-4.7-3.5Zm-1.4-17.4c.9-1.5,2.3-2.6,3.9-3.2v9.5c0,.2,0,.5,.1,.6,.1,.3,.3,.4,.5,.5l9.9,5.6-3.4,2-8.1-4.6c-1.8-1-3.1-2.6-3.6-4.5s-.4-4.1,.6-5.9Zm27.2,6.4l-9.9-5.6,3.4-2,8.1,4.6c1.3,.8,2.3,1.7,2.9,3,.6,1.3,1,2.6,.9,4.1-.1,1.4-.6,2.8-1.5,3.9s-2,2-3.4,2.5v-9.5c0-.3,0-.5-.1-.6,0,0-.1-.2-.4-.4Zm3.9-5s-.1-.1-.3-.1l-8.1-4.6c-.3-.1-.4-.1-.6-.1s-.5,0-.6,.1l-9.9,5.6v-3.9l8.3-4.8c1.3-.7,2.7-1,4.2-1s2.8,.5,4.1,1.4c1.1,.9,2.2,2,2.7,3.2s.6,2.7,.4,4.1Zm-21.8,6.5l-3.2-1.9V14.2c0-1.3,.4-2.7,1.1-3.8,.7-1.2,1.8-2,3-2.6s2.6-.8,4-.6c1.3,.1,2.6,.7,3.7,1.5,0,0-.1,.1-.2,.1l-7.7,4.4c-.2,.1-.4,.2-.5,.5s-.1,.4-.1,.6v10.6Zm2.2-3.4l4.3-2.4,4.3,2.4v4.9l-4.3,2.4-4.3-2.4v-4.9Z" fill="black"/>
</svg>
