<svg width="48" height="48" viewBox="0 0 48 48" fill="none" xmlns="http://www.w3.org/2000/svg">
  <path d="M25.5,26.3s0-3.3-1.6-3.5-6.7,0-6.7,0V12.5h7.6s0-3.4-1.5-3.4H11l2.1-5.5s-3.1,.2-4.2,2.1-4.6,11.8-4.6,11.8c0,0,1.2,.5,3.2-.9,2-1.5,2.7-4,2.7-4l3.6-.2v10.5c0,0-6.2,0-7.5,0s-2,3.5-2,3.5H13.7s-.9,5.8-3.3,10c-2.5,4.2-7.1,7.6-7.1,7.6,0,0,3.3,1.4,6.6-.5,3.3-2,5.7-10.5,5.7-10.5l7.6,9.5s.7-4.5,0-5.8c-.9-1.3-5.3-6.4-5.3-6.4l-2,1.7,1.4-5.7h8.3Zm2-17.5v31c0,0,3,0,3,0l1.1,3.9,5.4-3.9h7.6V8.8H27.5Zm13.7,27.5h-3.6l-4.5,3.5-1-3.5h-.9V12.3h10.1v24Z" fill="black"/>
</svg>
